<svg aria-hidden="true" style="position: absolute; width: 24; height: 24; overflow: hidden;" version="1.1" xmlns="http://www.w3.org/2000/svg" xmlns:xlink="http://www.w3.org/1999/xlink">
<defs>

  <!-- Icons -->

<symbol id="menu" viewBox="0 0 24 24">
  <path fill-rule="evenodd" d="M3 6.75A.75.75 0 013.75 6h16.5a.75.75 0 010 1.5H3.75A.75.75 0 013 6.75zM3 12a.75.75 0 01.75-.75h16.5a.75.75 0 010 1.5H3.75A.75.75 0 013 12zm0 5.25a.75.75 0 01.75-.75h16.5a.75.75 0 010 1.5H3.75a.75.75 0 01-.75-.75z" clip-rule="evenodd" />
</symbol>

<symbol id="menu-close" viewBox="0 0 24 24">
  <path fill-rule="evenodd" d="M5.47 5.47a.75.75 0 011.06 0L12 10.94l5.47-5.47a.75.75 0 111.06 1.06L13.06 12l5.47 5.47a.75.75 0 11-1.06 1.06L12 13.06l-5.47 5.47a.75.75 0 01-1.06-1.06L10.94 12 5.47 6.53a.75.75 0 010-1.06z" clip-rule="evenodd" />
</symbol>

<symbol id="options" viewBox="0 0 24 24">
  <path fill-rule="evenodd" d="M10.5 6a1.5 1.5 0 113 0 1.5 1.5 0 01-3 0zm0 6a1.5 1.5 0 113 0 1.5 1.5 0 01-3 0zm0 6a1.5 1.5 0 113 0 1.5 1.5 0 01-3 0z" clip-rule="evenodd" />
</symbol>

<symbol id="edit" viewBox="0 0 24 24">
  <path d="M21.731 2.269a2.625 2.625 0 00-3.712 0l-1.157 1.157 3.712 3.712 1.157-1.157a2.625 2.625 0 000-3.712zM19.513 8.199l-3.712-3.712-8.4 8.4a5.25 5.25 0 00-1.32 2.214l-.8 2.685a.75.75 0 00.933.933l2.685-.8a5.25 5.25 0 002.214-1.32l8.4-8.4z" />
  <path d="M5.25 5.25a3 3 0 00-3 3v10.5a3 3 0 003 3h10.5a3 3 0 003-3V13.5a.75.75 0 00-1.5 0v5.25a1.5 1.5 0 01-1.5 1.5H5.25a1.5 1.5 0 01-1.5-1.5V8.25a1.5 1.5 0 011.5-1.5h5.25a.75.75 0 000-1.5H5.25z" />
</symbol>

<symbol id="delete" viewBox="0 0 24 24">
  <path fill-rule="evenodd" d="M16.5 4.478v.227a48.816 48.816 0 013.878.512.75.75 0 11-.256 1.478l-.209-.035-1.005 13.07a3 3 0 01-2.991 2.77H8.084a3 3 0 01-2.991-2.77L4.087 6.66l-.209.035a.75.75 0 01-.256-1.478A48.567 48.567 0 017.5 4.705v-.227c0-1.564 1.213-2.9 2.816-2.951a52.662 52.662 0 013.369 0c1.603.051 2.815 1.387 2.815 2.951zm-6.136-1.452a51.196 51.196 0 013.273 0C14.39 3.05 15 3.684 15 4.478v.113a49.488 49.488 0 00-6 0v-.113c0-.794.609-1.428 1.364-1.452zm-.355 5.945a.75.75 0 10-1.5.058l.347 9a.75.75 0 101.499-.058l-.346-9zm5.48.058a.75.75 0 10-1.498-.058l-.347 9a.75.75 0 001.5.058l.345-9z" clip-rule="evenodd" />
</symbol>

<symbol id="plus" viewBox="0 0 24 24">
  <path fill-rule="evenodd" d="M12 3.75a.75.75 0 01.75.75v6.75h6.75a.75.75 0 010 1.5h-6.75v6.75a.75.75 0 01-1.5 0v-6.75H4.5a.75.75 0 010-1.5h6.75V4.5a.75.75 0 01.75-.75z" clip-rule="evenodd" />
</symbol>

<symbol id="task-check" viewBox="0 0 24 24">
  <path fill-rule="evenodd" d="M19.916 4.626a.75.75 0 01.208 1.04l-9 13.5a.75.75 0 01-1.154.114l-6-6a.75.75 0 011.06-1.06l5.353 5.353 8.493-12.739a.75.75 0 011.04-.208z" clip-rule="evenodd" />
</symbol>



<!-- Category Icons -->

<symbol id="home" viewBox="0 0 24 24">
  <path d="M11.47 3.84a.75.75 0 011.06 0l8.69 8.69a.75.75 0 101.06-1.06l-8.689-8.69a2.25 2.25 0 00-3.182 0l-8.69 8.69a.75.75 0 001.061 1.06l8.69-8.69z" />
  <path d="M12 5.432l8.159 8.159c.03.03.06.058.091.086v6.198c0 1.035-.84 1.875-1.875 1.875H15a.75.75 0 01-.75-.75v-4.5a.75.75 0 00-.75-.75h-3a.75.75 0 00-.75.75V21a.75.75 0 01-.75.75H5.625a1.875 1.875 0 01-1.875-1.875v-6.198a2.29 2.29 0 00.091-.086L12 5.43z" />
</symbol>

<symbol id="default" viewBox="0 0 24 24">
  <path fill-rule="evenodd" d="M4.5 7.5a3 3 0 013-3h9a3 3 0 013 3v9a3 3 0 01-3 3h-9a3 3 0 01-3-3v-9z" clip-rule="evenodd" />
</symbol>


<symbol id="academic" viewBox="0 0 24 24">
  <path d="M11.7 2.805a.75.75 0 01.6 0A60.65 60.65 0 0122.83 8.72a.75.75 0 01-.231 1.337 49.949 49.949 0 00-9.902 3.912l-.003.002-.34.18a.75.75 0 01-.707 0A50.009 50.009 0 007.5 12.174v-.224c0-.131.067-.248.172-.311a54.614 54.614 0 014.653-2.52.75.75 0 00-.65-1.352 56.129 56.129 0 00-4.78 2.589 1.858 1.858 0 00-.859 1.228 49.803 49.803 0 00-4.634-1.527.75.75 0 01-.231-1.337A60.653 60.653 0 0111.7 2.805z M13.06 15.473a48.45 48.45 0 017.666-3.282c.134 1.414.22 2.843.255 4.285a.75.75 0 01-.46.71 47.878 47.878 0 00-8.105 4.342.75.75 0 01-.832 0 47.877 47.877 0 00-8.104-4.342.75.75 0 01-.461-.71c.035-1.442.121-2.87.255-4.286A48.4 48.4 0 016 13.18v1.27a1.5 1.5 0 00-.14 2.508c-.09.38-.222.753-.397 1.11.452.213.901.434 1.346.661a6.729 6.729 0 00.551-1.608 1.5 1.5 0 00.14-2.67v-.645a48.549 48.549 0 013.44 1.668 2.25 2.25 0 002.12 0z M4.462 19.462c.42-.419.753-.89 1-1.394.453.213.902.434 1.347.661a6.743 6.743 0 01-1.286 1.794.75.75 0 11-1.06-1.06z"></path>
</symbol>

<symbol id="book" viewBox="0 0 24 24">
  <path d="M11.25 4.533A9.707 9.707 0 006 3a9.735 9.735 0 00-3.25.555.75.75 0 00-.5.707v14.25a.75.75 0 001 .707A8.237 8.237 0 016 18.75c1.995 0 3.823.707 5.25 1.886V4.533zM12.75 20.636A8.214 8.214 0 0118 18.75c.966 0 1.89.166 2.75.47a.75.75 0 001-.708V4.262a.75.75 0 00-.5-.707A9.735 9.735 0 0018 3a9.707 9.707 0 00-5.25 1.533v16.103z" />
</symbol>

<symbol id="love" viewBox="0 0 24 24">
  <path d="M11.645 20.91l-.007-.003-.022-.012a15.247 15.247 0 01-.383-.218 25.18 25.18 0 01-4.244-3.17C4.688 15.36 2.25 12.174 2.25 8.25 2.25 5.322 4.714 3 7.688 3A5.5 5.5 0 0112 5.052 5.5 5.5 0 0116.313 3c2.973 0 5.437 2.322 5.437 5.25 0 3.925-2.438 7.111-4.739 9.256a25.175 25.175 0 01-4.244 3.17 15.247 15.247 0 01-.383.219l-.022.012-.007.004-.003.001a.752.752 0 01-.704 0l-.003-.001z" />
</symbol>

<symbol id="rocket" viewBox="0 0 24 24">
  <path fill-rule="evenodd" d="M9.315 7.584C12.195 3.883 16.695 1.5 21.75 1.5a.75.75 0 01.75.75c0 5.056-2.383 9.555-6.084 12.436A6.75 6.75 0 019.75 22.5a.75.75 0 01-.75-.75v-4.131A15.838 15.838 0 016.382 15H2.25a.75.75 0 01-.75-.75 6.75 6.75 0 017.815-6.666zM15 6.75a2.25 2.25 0 100 4.5 2.25 2.25 0 000-4.5z" clip-rule="evenodd" />
  <path d="M5.26 17.242a.75.75 0 10-.897-1.203 5.243 5.243 0 00-2.05 5.022.75.75 0 00.625.627 5.243 5.243 0 005.022-2.051.75.75 0 10-1.202-.897 3.744 3.744 0 01-3.008 1.51c0-1.23.592-2.323 1.51-3.008z" />
</symbol>

<symbol id="map" viewBox="0 0 24 24">
  <path fill-rule="evenodd" d="M11.54 22.351l.07.04.028.016a.76.76 0 00.723 0l.028-.015.071-.041a16.975 16.975 0 001.144-.742 19.58 19.58 0 002.683-2.282c1.944-1.99 3.963-4.98 3.963-8.827a8.25 8.25 0 00-16.5 0c0 3.846 2.02 6.837 3.963 8.827a19.58 19.58 0 002.682 2.282 16.975 16.975 0 001.145.742zM12 13.5a3 3 0 100-6 3 3 0 000 6z" clip-rule="evenodd" />
</symbol>

<symbol id="user" viewBox="0 0 24 24">
  <path fill-rule="evenodd" d="M7.5 6a4.5 4.5 0 119 0 4.5 4.5 0 01-9 0zM3.751 20.105a8.25 8.25 0 0116.498 0 .75.75 0 01-.437.695A18.683 18.683 0 0112 22.5c-2.786 0-5.433-.608-7.812-1.7a.75.75 0 01-.437-.695z" clip-rule="evenodd" />
</symbol>

<symbol id="star" viewBox="0 0 24 24">
  <path fill-rule="evenodd" d="M10.788 3.21c.448-1.077 1.976-1.077 2.424 0l2.082 5.007 5.404.433c1.164.093 1.636 1.545.749 2.305l-4.117 3.527 1.257 5.273c.271 1.136-.964 2.033-1.96 1.425L12 18.354 7.373 21.18c-.996.608-2.231-.29-1.96-1.425l1.257-5.273-4.117-3.527c-.887-.76-.415-2.212.749-2.305l5.404-.433 2.082-5.006z" clip-rule="evenodd" />
</symbol>

<symbol id="sparkles" viewBox="0 0 24 24">
  <path fill-rule="evenodd" d="M9 4.5a.75.75 0 01.721.544l.813 2.846a3.75 3.75 0 002.576 2.576l2.846.813a.75.75 0 010 1.442l-2.846.813a3.75 3.75 0 00-2.576 2.576l-.813 2.846a.75.75 0 01-1.442 0l-.813-2.846a3.75 3.75 0 00-2.576-2.576l-2.846-.813a.75.75 0 010-1.442l2.846-.813A3.75 3.75 0 007.466 7.89l.813-2.846A.75.75 0 019 4.5zM18 1.5a.75.75 0 01.728.568l.258 1.036c.236.94.97 1.674 1.91 1.91l1.036.258a.75.75 0 010 1.456l-1.036.258c-.94.236-1.674.97-1.91 1.91l-.258 1.036a.75.75 0 01-1.456 0l-.258-1.036a2.625 2.625 0 00-1.91-1.91l-1.036-.258a.75.75 0 010-1.456l1.036-.258a2.625 2.625 0 001.91-1.91l.258-1.036A.75.75 0 0118 1.5zM16.5 15a.75.75 0 01.712.513l.394 1.183c.15.447.5.799.948.948l1.183.395a.75.75 0 010 1.422l-1.183.395c-.447.15-.799.5-.948.948l-.395 1.183a.75.75 0 01-1.422 0l-.395-1.183a1.5 1.5 0 00-.948-.948l-1.183-.395a.75.75 0 010-1.422l1.183-.395c.447-.15.799-.5.948-.948l.395-1.183A.75.75 0 0116.5 15z" clip-rule="evenodd" />
</symbol>

<symbol id="shopping" viewBox="0 0 24 24">
  <path d="M2.25 2.25a.75.75 0 000 1.5h1.386c.17 0 .318.114.362.278l2.558 9.592a3.752 3.752 0 00-2.806 3.63c0 .414.336.75.75.75h15.75a.75.75 0 000-1.5H5.378A2.25 2.25 0 017.5 15h11.218a.75.75 0 00.674-.421 60.358 60.358 0 002.96-7.228.75.75 0 00-.525-.965A60.864 60.864 0 005.68 4.509l-.232-.867A1.875 1.875 0 003.636 2.25H2.25zM3.75 20.25a1.5 1.5 0 113 0 1.5 1.5 0 01-3 0zM16.5 20.25a1.5 1.5 0 113 0 1.5 1.5 0 01-3 0z" />
</symbol>

<symbol id="code" viewBox="0 0 24 24">
  <path fill-rule="evenodd" d="M2.25 6a3 3 0 013-3h13.5a3 3 0 013 3v12a3 3 0 01-3 3H5.25a3 3 0 01-3-3V6zm3.97.97a.75.75 0 011.06 0l2.25 2.25a.75.75 0 010 1.06l-2.25 2.25a.75.75 0 01-1.06-1.06l1.72-1.72-1.72-1.72a.75.75 0 010-1.06zm4.28 4.28a.75.75 0 000 1.5h3a.75.75 0 000-1.5h-3z" clip-rule="evenodd" />
</symbol>

<symbol id="cloud" viewBox="0 0 24 24">
  <path fill-rule="evenodd" d="M4.5 9.75a6 6 0 0111.573-2.226 3.75 3.75 0 014.133 4.303A4.5 4.5 0 0118 20.25H6.75a5.25 5.25 0 01-2.23-10.004 6.072 6.072 0 01-.02-.496z" clip-rule="evenodd" />
</symbol>

<symbol id="gift" viewBox="0 0 24 24">
  <path d="M9.375 3a1.875 1.875 0 000 3.75h1.875v4.5H3.375A1.875 1.875 0 011.5 9.375v-.75c0-1.036.84-1.875 1.875-1.875h3.193A3.375 3.375 0 0112 2.753a3.375 3.375 0 015.432 3.997h3.943c1.035 0 1.875.84 1.875 1.875v.75c0 1.036-.84 1.875-1.875 1.875H12.75v-4.5h1.875a1.875 1.875 0 10-1.875-1.875V6.75h-1.5V4.875C11.25 3.839 10.41 3 9.375 3zM11.25 12.75H3v6.75a2.25 2.25 0 002.25 2.25h6v-9zM12.75 12.75v9h6.75a2.25 2.25 0 002.25-2.25v-6.75h-9z" />
</symbol>

<symbol id="money" viewBox="0 0 24 24">
  <path d="M10.464 8.746c.227-.18.497-.311.786-.394v2.795a2.252 2.252 0 01-.786-.393c-.394-.313-.546-.681-.546-1.004 0-.323.152-.691.546-1.004zM12.75 15.662v-2.824c.347.085.664.228.921.421.427.32.579.686.579.991 0 .305-.152.671-.579.991a2.534 2.534 0 01-.921.42z" />
  <path fill-rule="evenodd" d="M12 2.25c-5.385 0-9.75 4.365-9.75 9.75s4.365 9.75 9.75 9.75 9.75-4.365 9.75-9.75S17.385 2.25 12 2.25zM12.75 6a.75.75 0 00-1.5 0v.816a3.836 3.836 0 00-1.72.756c-.712.566-1.112 1.35-1.112 2.178 0 .829.4 1.612 1.113 2.178.502.4 1.102.647 1.719.756v2.978a2.536 2.536 0 01-.921-.421l-.879-.66a.75.75 0 00-.9 1.2l.879.66c.533.4 1.169.645 1.821.75V18a.75.75 0 001.5 0v-.81a4.124 4.124 0 001.821-.749c.745-.559 1.179-1.344 1.179-2.191 0-.847-.434-1.632-1.179-2.191a4.122 4.122 0 00-1.821-.75V8.354c.29.082.559.213.786.393l.415.33a.75.75 0 00.933-1.175l-.415-.33a3.836 3.836 0 00-1.719-.755V6z" clip-rule="evenodd" />
</symbol>

<symbol id="bolt" viewBox="0 0 24 24">
  <path fill-rule="evenodd" d="M14.615 1.595a.75.75 0 01.359.852L12.982 9.75h7.268a.75.75 0 01.548 1.262l-10.5 11.25a.75.75 0 01-1.272-.71l1.992-7.302H3.75a.75.75 0 01-.548-1.262l10.5-11.25a.75.75 0 01.913-.143z" clip-rule="evenodd" />
</symbol>

</defs>
</svg>
